<?xml version="1.0" encoding="UTF-8" standalone="no"?><svg width="16" height="16" viewBox="0 0 4.2333332 4.2333335" version="1.1" id="svg870" xmlns="http://www.w3.org/2000/svg" xmlns:svg="http://www.w3.org/2000/svg"><desc id="desc1">Closed source</desc><defs id="defs864"/><metadata id="metadata867"/><g id="layer3" style="display:inline"><path style="fill:none;stroke:#ffffff;stroke-width:0.264583;stroke-linecap:butt;stroke-linejoin:miter;stroke-miterlimit:4;stroke-dasharray:none;stroke-opacity:1" d="M 0.66145835,1.4552083 H 3.571875 c 0,0 -0.5291667,0 0,0 0.5291666,0 0.5291666,0.5291667 0.5291666,0.5291667 v 1.5875 c 0,0 0,-0.5291667 0,0 0,0.5291666 -0.5291666,0.5291666 -0.5291666,0.5291666 H 0.66145835 c 0,0 0.52916665,0 0,0 -0.52916668,0 -0.52916668,-0.5291666 -0.52916668,-0.5291666 v -1.5875 c 0,0 0,0.5291667 0,0 0,-0.5291667 0.52916668,-0.5291667 0.52916668,-0.5291667 z" id="path1452"/><path style="fill:none;stroke:#ffffff;stroke-width:0.264583;stroke-linecap:butt;stroke-linejoin:miter;stroke-miterlimit:4;stroke-dasharray:none;stroke-opacity:1" d="m 1.190625,1.4552083 c 0,0 0,-0.2645833 0,-0.79374995 0,-0.52916668 0.5291667,-0.52916668 0.5291667,-0.52916668 h 0.79375 c 0,0 -0.5291667,0 0,0 0.5291666,0 0.5291666,0.52916668 0.5291666,0.52916668 V 1.4552083" id="path1454"/><circle style="opacity:0.998;fill:#ffffff;fill-opacity:1;stroke:none;stroke-width:0.264583;stroke-linecap:square" id="path1456" cx="2.1166666" cy="2.3812499" r="0.39687499"/><path style="opacity:0.998;fill:#ffffff;fill-opacity:1;stroke:none;stroke-width:0.264583;stroke-linecap:square" id="path1460" d="m 2.1166666,2.3812501 0.5155557,0.8929688 0.5155557,0.8929687 -1.0311114,0 -1.0311115,-1e-7 0.5155557,-0.8929686 z" transform="matrix(0.3849002,0,0,0.66666665,1.3019613,0.79375008)"/></g></svg>
