<?xml version="1.0" encoding="UTF-8" standalone="no"?><svg width="64" height="64" viewBox="0 0 16.933333 16.933334" version="1.1" id="svg871" xmlns="http://www.w3.org/2000/svg" xmlns:svg="http://www.w3.org/2000/svg"><defs id="defs865"/><metadata id="metadata868"/><g id="layer1" style="opacity:0.375"><path style="fill:#ffffff;fill-opacity:1;stroke:none;stroke-width:0.264583px;stroke-linecap:butt;stroke-linejoin:miter;stroke-opacity:0.375" d="m 8.2018339,5.2916677 c 0,0 0.5305975,-10e-8 0.5300069,0 -5.906e-4,1e-7 0.2639927,1e-7 0.2639927,0.2645834 l -10e-8,3.9687498 c 0,0 10e-8,0.7937501 -0.2645832,1.0583331 H 8.4666669 8.2020834 C 7.9375002,10.318751 7.9375001,9.5250009 7.9375001,9.5250009 l 10e-8,-3.9687498 c 0,-0.2645833 0.2643337,-0.2645834 0.2643337,-0.2645834 z" id="path1446"/><path style="fill:#ffffff;fill-opacity:1;stroke:none;stroke-width:0.264583px;stroke-linecap:butt;stroke-linejoin:miter;stroke-opacity:0.375" d="m 8.2020835,11.112501 h 0.5291667 c 0.1322919,0 0.2645833,0.132292 0.2645833,0.264583 v 0.5271 c 0,0.262516 -0.2645833,0.26665 -0.2645833,0.26665 H 8.2020835 c -0.1322916,0 -0.2645833,-0.132291 -0.2645833,-0.264583 v -0.529167 c 0,-0.132291 0.1322917,-0.264583 0.2645833,-0.264583 z" id="path1452"/><path style="fill:none;stroke:#ffffff;stroke-width:0.529167;stroke-linecap:square;stroke-linejoin:miter;stroke-miterlimit:4;stroke-dasharray:none;stroke-opacity:1" d="M 8.4666668,0.26458334 16.66875,8.4666669 8.4666666,16.66875 0.26458324,8.4666669 8.4666668,0.26458334" id="path2609"/><path style="fill:#ffffff;fill-opacity:1;stroke:none;stroke-width:0.264583px;stroke-linecap:butt;stroke-linejoin:miter;stroke-opacity:0.375" d="m 6.0849177,5.2916686 c 0,0 0.5305975,-1e-7 0.5300069,0 -5.906e-4,10e-8 0.2639927,10e-8 0.2639927,0.2645834 l -1e-7,3.9687499 c 0,0 1e-7,0.7937501 -0.2645832,1.0583331 H 6.3497507 6.0851672 C 5.820584,10.318752 5.8205839,9.5250019 5.8205839,9.5250019 l 1e-7,-3.9687499 c 0,-0.2645833 0.2643337,-0.2645834 0.2643337,-0.2645834 z" id="path1446-5"/><path style="fill:#ffffff;fill-opacity:1;stroke:none;stroke-width:0.264583px;stroke-linecap:butt;stroke-linejoin:miter;stroke-opacity:0.375" d="M 6.0851673,11.112502 H 6.614334 c 0.1322919,0 0.2645833,0.132292 0.2645833,0.264583 v 0.5271 c 0,0.262516 -0.2645833,0.26665 -0.2645833,0.26665 H 6.0851673 c -0.1322916,0 -0.2645833,-0.132291 -0.2645833,-0.264583 v -0.529167 c 0,-0.132291 0.1322917,-0.264583 0.2645833,-0.264583 z" id="path1452-8"/><path style="fill:#ffffff;fill-opacity:1;stroke:none;stroke-width:0.264583px;stroke-linecap:butt;stroke-linejoin:miter;stroke-opacity:0.375" d="m 10.318251,5.2916682 c 0,0 0.530597,-1e-7 0.530007,0 -5.91e-4,1e-7 0.263992,1e-7 0.263992,0.2645834 v 3.9687499 c 0,0 0,0.7937505 -0.264583,1.0583335 H 10.583084 10.3185 C 10.053917,10.318752 10.053917,9.5250015 10.053917,9.5250015 V 5.5562516 c 0,-0.2645833 0.264334,-0.2645834 0.264334,-0.2645834 z" id="path1446-6"/><path style="fill:#ffffff;fill-opacity:1;stroke:none;stroke-width:0.264583px;stroke-linecap:butt;stroke-linejoin:miter;stroke-opacity:0.375" d="m 10.3185,11.112502 h 0.529167 c 0.132292,0 0.264583,0.132292 0.264583,0.264583 v 0.5271 c 0,0.262516 -0.264583,0.26665 -0.264583,0.26665 H 10.3185 c -0.132291,0 -0.264583,-0.132291 -0.264583,-0.264583 v -0.529167 c 0,-0.132291 0.132292,-0.264583 0.264583,-0.264583 z" id="path1452-9"/></g></svg>
