<?xml version="1.0" encoding="UTF-8" standalone="no"?><svg width="64" height="64" viewBox="0 0 16.933333 16.933334" version="1.1" id="svg871" xmlns="http://www.w3.org/2000/svg" xmlns:svg="http://www.w3.org/2000/svg"><defs id="defs865"/><metadata id="metadata868"/><g id="layer1" style="opacity:0.125"><path style="fill:#ffffff;fill-opacity:1;stroke:none;stroke-width:0.264583px;stroke-linecap:butt;stroke-linejoin:miter;stroke-opacity:0.125" d="m 8.2020835,6.0854168 c 0,0 0.5305975,-1e-7 0.5300069,0 -5.906e-4,1e-7 0.2639927,1e-7 0.2639927,0.2645834 l -10e-8,3.9687498 c 0,0 10e-8,0.79375 -0.2645832,1.058333 H 8.4669165 8.202333 C 7.9377498,11.1125 7.9377497,10.31875 7.9377497,10.31875 l 10e-8,-3.9687498 c 0,-0.2645833 0.2643337,-0.2645834 0.2643337,-0.2645834 z" id="path1446"/><path style="fill:#ffffff;fill-opacity:0.97948718;stroke:none;stroke-width:0.264583px;stroke-linecap:butt;stroke-linejoin:miter;stroke-opacity:0.125" d="m 8.2023331,11.90625 h 0.5291667 c 0.1322919,0 0.2645833,0.132292 0.2645833,0.264583 v 0.5271 c 0,0.262516 -0.2645833,0.26665 -0.2645833,0.26665 H 8.2023331 c -0.1322916,0 -0.2645833,-0.132291 -0.2645833,-0.264583 v -0.529167 c 0,-0.132291 0.1322917,-0.264583 0.2645833,-0.264583 z" id="path1452"/><path style="opacity:1;fill:none;stroke:#ffffff;stroke-width:0.529167;stroke-linecap:round;stroke-linejoin:round;stroke-dasharray:none;stroke-opacity:1" id="path962" d="m 8.4666665,1.0583334 8.2488915,14.2874996 -16.49778355,0 z"/></g></svg>
